<?xml version="1.0" standalone="no"?>
<!DOCTYPE svg PUBLIC "-//W3C//DTD SVG 20010904//EN"
 "http://www.w3.org/TR/2001/REC-SVG-20010904/DTD/svg10.dtd">
<svg version="1.0" xmlns="http://www.w3.org/2000/svg"
 width="1080.000000pt" height="1080.000000pt" viewBox="0 0 1080.000000 1080.000000"
 preserveAspectRatio="xMidYMid meet">

<g transform="translate(0.000000,1080.000000) scale(0.100000,-0.100000)"
fill="#000000" stroke="none">
<path d="M5406 8707 c-16 -137 -37 -410 -32 -415 8 -8 537 -54 553 -48 8 4 13
23 13 54 l0 49 -47 6 c-27 3 -110 11 -186 18 l-139 12 7 36 c4 20 8 37 10 39
2 2 64 -2 139 -9 75 -6 138 -10 140 -8 2 2 7 20 11 41 6 34 5 36 -22 41 -15 3
-68 9 -118 12 -140 9 -145 11 -145 50 0 19 3 36 8 38 4 2 70 -2 147 -9 209
-20 191 -23 199 37 4 28 6 53 4 55 -2 1 -109 12 -238 23 -129 12 -249 23 -266
25 -32 4 -32 4 -38 -47z"/>
<path d="M6050 8464 c-41 -119 -75 -219 -75 -223 0 -3 40 -20 90 -37 l90 -31
50 143 c27 78 53 145 56 148 3 3 39 -82 79 -189 l73 -194 109 -37 c60 -20 110
-34 112 -33 4 6 145 411 148 428 2 9 -25 23 -82 42 -46 16 -87 29 -91 29 -3 0
-28 -62 -54 -137 -26 -76 -51 -142 -55 -146 -4 -4 -40 79 -80 186 l-74 194
-100 33 c-56 18 -105 34 -111 36 -5 2 -44 -93 -85 -212z"/>
<path d="M4680 8663 c-23 -4 -412 -104 -417 -108 -3 -1 117 -448 121 -452 3
-3 175 43 181 48 2 3 -2 29 -10 59 -8 30 -15 60 -15 65 0 13 123 45 172 45 36
0 57 -16 98 -79 l15 -23 88 24 c48 12 87 25 87 28 0 3 -13 27 -28 55 -23 43
-41 59 -87 79 -6 3 -6 7 1 13 49 38 59 127 21 184 -40 60 -116 81 -227 62z
m54 -145 c24 -38 -23 -71 -152 -107 l-73 -20 -8 22 c-5 12 -12 36 -15 53 l-7
32 78 20 c94 25 161 24 177 0z"/>
<path d="M5135 8536 l-130 -11 3 -35 c2 -19 5 -36 6 -37 3 -3 290 19 294 23 2
1 0 18 -3 38 -5 25 -12 36 -24 34 -9 0 -74 -6 -146 -12z"/>
<path d="M3860 8356 c-124 -68 -225 -128 -225 -134 0 -17 209 -402 219 -402 5
0 118 59 252 132 l242 132 -24 48 c-13 26 -27 48 -30 48 -3 0 -77 -39 -165
-86 -88 -48 -161 -85 -163 -83 -2 2 -10 18 -19 35 l-16 31 129 69 128 69 -20
38 c-10 21 -22 37 -26 35 -4 -2 -60 -31 -123 -65 -64 -35 -120 -63 -125 -63
-5 0 -17 13 -26 29 -20 36 -30 27 155 126 70 37 127 72 127 77 0 17 -45 88
-55 87 -5 0 -111 -56 -235 -123z"/>
<path d="M3426 8074 c-38 -30 -71 -56 -73 -58 -2 -2 61 -87 141 -189 l144
-187 76 61 77 60 -83 107 c-144 187 -199 257 -206 259 -4 1 -38 -23 -76 -53z"/>
<path d="M6927 8091 l-17 -30 107 -74 c60 -40 114 -77 122 -82 10 -6 21 1 37
20 l23 29 -124 83 c-69 46 -126 83 -128 83 -1 0 -10 -13 -20 -29z"/>
<path d="M3053 7736 l-192 -203 40 -39 39 -38 68 67 68 67 39 -41 c22 -22 80
-77 128 -121 l88 -81 65 64 c35 35 64 66 64 70 0 7 -142 146 -215 211 l-39 36
62 69 61 70 -37 36 c-21 21 -40 37 -42 37 -3 0 -91 -92 -197 -204z"/>
<path d="M7364 7815 c-128 -29 -244 -55 -260 -59 l-27 -7 62 -63 62 -63 45 10
45 11 106 -107 107 -106 -11 -45 -10 -45 63 -62 62 -62 11 39 c5 21 31 139 57
262 l48 223 -64 63 -65 63 -231 -52z m216 -102 c0 -27 -44 -163 -53 -163 -15
0 -117 101 -117 116 0 7 26 20 58 29 31 9 62 18 67 20 17 6 45 5 45 -2z"/>
<path d="M2795 7364 c-42 -22 -62 -41 -110 -109 -50 -70 -215 -349 -215 -363
0 -9 364 -228 390 -234 6 -2 33 33 59 78 l48 81 -56 33 c-31 18 -57 34 -59 35
-6 5 72 130 96 153 22 23 29 24 90 18 l67 -6 43 73 c23 41 42 76 42 79 0 3
-27 13 -60 22 -55 16 -63 16 -92 2 -17 -9 -33 -16 -35 -16 -1 0 -3 16 -3 36 0
97 -116 164 -205 118z m48 -185 c11 -15 13 -29 7 -50 -11 -36 -91 -179 -101
-179 -6 0 -71 34 -87 46 -7 5 83 150 109 177 33 32 53 34 72 6z"/>
<path d="M7883 7355 c-80 -34 -81 -100 -4 -260 28 -59 51 -114 51 -121 0 -16
-33 -18 -61 -4 -24 14 -49 61 -49 96 0 28 -85 184 -101 184 -18 0 -43 -67 -42
-116 1 -109 131 -302 228 -340 75 -28 156 3 170 65 7 34 -21 124 -71 222 -40
80 -43 109 -13 109 35 0 79 -53 79 -95 0 -26 14 -60 47 -116 26 -43 52 -78 58
-76 5 2 18 19 28 38 25 46 18 110 -20 190 -49 104 -113 182 -174 213 -60 29
-80 31 -126 11z"/>
<path d="M8164 6767 c-40 -34 -42 -97 -10 -230 14 -60 26 -117 26 -128 0 -26
-23 -24 -57 5 -25 22 -28 31 -29 88 0 41 -10 92 -28 146 l-28 83 -24 -22 c-60
-56 -67 -154 -22 -285 47 -133 110 -202 194 -212 56 -6 88 10 110 56 19 40 15
90 -17 214 -10 42 -19 88 -19 102 0 34 24 34 56 -1 21 -23 25 -36 23 -82 -1
-39 7 -80 26 -136 16 -44 30 -82 32 -84 5 -7 44 33 58 59 32 64 20 168 -33
292 -24 53 -83 123 -123 144 -43 22 -103 18 -135 -9z"/>
<path d="M2381 6682 c-40 -134 -51 -115 99 -162 150 -47 180 -68 180 -125 0
-43 -23 -90 -49 -105 -33 -17 -78 -11 -198 25 -64 19 -119 35 -124 35 -12 0
-62 -171 -52 -180 22 -21 250 -80 307 -80 120 0 191 77 237 257 50 198 2 284
-192 343 -57 17 -123 37 -146 45 l-42 13 -20 -66z"/>
<path d="M8386 6164 c-137 -18 -199 -48 -236 -114 -23 -41 -25 -55 -24 -160 1
-138 24 -213 85 -271 57 -55 105 -63 268 -44 74 9 137 17 139 20 2 2 0 41 -4
87 l-9 83 -45 -1 c-25 0 -93 -4 -152 -9 -92 -7 -111 -6 -132 9 -57 37 -55 160
2 190 15 8 88 21 161 30 74 8 135 17 136 18 2 2 -2 42 -7 91 l-11 87 -31 -1
c-17 -1 -80 -8 -140 -15z"/>
<path d="M2325 6011 c-82 -38 -127 -115 -146 -247 -33 -237 61 -394 236 -394
97 0 164 45 208 139 29 61 32 76 35 191 5 151 -14 216 -78 274 -64 57 -176 74
-255 37z m139 -185 c51 -21 76 -60 76 -120 0 -78 -39 -131 -100 -136 -54 -5
-73 1 -106 34 -31 31 -34 39 -34 93 0 75 25 115 85 135 31 10 43 9 79 -6z"/>
<path d="M8166 5474 c-2 -6 -8 -48 -11 -92 l-7 -80 67 -7 67 -7 -7 -52 c-19
-159 -29 -176 -113 -195 -24 -5 -45 -11 -47 -13 -3 -2 -10 -49 -16 -104 -8
-62 -23 -125 -41 -168 l-28 -69 26 -39 27 -39 -57 -144 c-54 -135 -60 -145
-84 -146 -53 -1 -66 -14 -98 -95 -18 -43 -31 -80 -31 -81 5 -4 522 99 528 105
4 4 21 40 38 80 l31 74 -22 31 c-12 18 -82 116 -155 219 -73 103 -133 191
-133 196 0 6 22 13 50 17 33 5 57 15 72 31 30 31 44 30 63 -6 21 -41 71 -70
118 -70 99 0 151 85 181 295 24 164 39 305 34 310 -3 3 -105 18 -226 33 -166
21 -222 25 -226 16z m331 -218 c2 -2 -3 -49 -11 -105 -16 -112 -34 -151 -70
-151 -50 0 -61 44 -46 172 l13 100 55 -6 c31 -4 57 -8 59 -10z m-279 -811 c23
-30 42 -60 42 -68 0 -15 -58 -27 -131 -27 -36 0 -37 1 -29 28 23 77 45 122 60
121 8 0 34 -24 58 -54z"/>
<path d="M2474 5293 c2 -10 10 -51 17 -92 11 -61 18 -80 45 -106 30 -31 54
-86 54 -128 0 -33 -29 -82 -59 -100 -41 -24 -102 -22 -136 5 -53 41 -70 126
-39 191 15 32 15 41 -1 130 -19 108 -21 109 -82 45 -60 -64 -77 -173 -48 -311
43 -202 149 -299 295 -268 134 29 193 107 193 256 -1 134 -41 263 -102 328
-50 54 -149 90 -137 50z"/>
<path d="M2547 4607 c-19 -8 -26 -16 -21 -27 3 -8 26 -70 51 -137 48 -128 58
-139 98 -109 18 13 17 19 -32 147 -28 73 -55 134 -59 135 -5 1 -22 -3 -37 -9z"/>
<path d="M2830 4363 c-25 -14 -46 -27 -48 -28 -2 -2 40 -75 92 -163 104 -177
100 -160 39 -195 -8 -5 -36 34 -84 115 -39 68 -73 124 -75 126 -3 5 -62 -26
-68 -37 -3 -5 26 -62 64 -127 38 -66 70 -122 70 -126 0 -8 -60 -41 -65 -36 -2
2 -40 66 -86 143 -45 77 -83 142 -85 144 -6 7 -94 -43 -94 -53 0 -8 185 -330
247 -428 l23 -37 200 117 c110 64 200 120 200 123 0 6 -274 476 -282 485 -2 1
-24 -9 -48 -23z"/>
<path d="M7733 4040 l-53 -68 103 -79 c56 -43 111 -87 121 -97 19 -19 19 -20
0 -27 -10 -4 -59 -8 -109 -8 -49 -1 -134 -4 -188 -8 l-98 -6 -65 -82 c-35 -46
-64 -87 -64 -92 0 -10 319 -259 343 -269 12 -4 102 98 110 125 1 5 -49 47
-110 95 -62 48 -113 93 -113 100 0 14 141 26 305 26 44 0 85 4 92 8 12 7 143
175 140 178 -14 14 -353 273 -357 273 -3 0 -29 -31 -57 -69z"/>
<path d="M3152 3814 c-22 -33 -32 -59 -32 -87 l0 -39 -36 6 c-26 5 -47 2 -79
-14 -84 -41 -108 -126 -61 -218 30 -59 87 -125 234 -275 l115 -117 141 137
c78 75 154 149 171 165 l30 28 -70 70 -69 70 -49 -48 -48 -47 -65 68 c-73 77
-78 98 -42 172 l22 46 -65 65 -66 66 -31 -48z m30 -320 c21 -15 58 -50 82 -79
l45 -52 -34 -33 c-18 -18 -37 -31 -42 -29 -5 2 -39 37 -76 77 -49 54 -67 81
-67 101 0 15 3 31 7 34 13 14 48 6 85 -19z"/>
<path d="M7239 3440 c-106 -32 -260 -155 -303 -242 -26 -51 -37 -150 -18 -162
4 -2 42 22 85 55 64 51 77 65 77 89 0 39 57 96 111 110 52 14 99 0 134 -41 33
-39 35 -117 5 -159 -25 -35 -100 -73 -137 -69 -21 2 -47 -11 -100 -51 -40 -30
-73 -57 -73 -61 0 -11 78 -39 110 -39 112 0 317 146 370 263 39 85 18 178 -56
249 -63 60 -133 80 -205 58z"/>
<path d="M3715 3129 c-61 -94 -101 -147 -108 -142 -7 3 -37 23 -67 43 -30 20
-60 40 -67 43 -7 5 -24 -10 -43 -38 -18 -26 -30 -48 -28 -49 10 -10 455 -299
464 -303 10 -4 64 67 64 84 0 5 -34 30 -75 56 l-74 49 26 41 c14 23 57 88 95
144 37 56 68 106 68 112 0 9 -4 12 -101 74 l-57 36 -97 -150z"/>
<path d="M6516 3009 c-132 -60 -241 -111 -243 -113 -4 -4 35 -86 40 -86 2 0
73 32 157 70 84 39 161 70 171 70 17 0 44 -50 37 -70 -2 -6 -60 -37 -129 -68
l-125 -57 13 -32 c15 -38 5 -40 157 31 54 25 106 46 115 46 19 0 48 -67 35
-80 -5 -4 -72 -36 -149 -70 -77 -34 -143 -65 -147 -68 -3 -4 3 -26 15 -48 l22
-42 235 108 c158 72 234 112 232 121 -7 36 -177 399 -186 398 -6 0 -119 -50
-250 -110z"/>
<path d="M4163 2969 c-102 -50 -152 -198 -104 -304 58 -129 321 -237 474 -194
119 33 194 206 138 318 -73 143 -370 248 -508 180z m267 -139 c65 -33 86 -98
55 -164 -31 -65 -104 -83 -182 -45 -88 42 -99 143 -25 206 35 29 99 30 152 3z"/>
<path d="M6008 2850 c-144 -25 -227 -72 -267 -153 -30 -61 -21 -101 29 -135
33 -23 41 -24 145 -18 61 3 129 9 153 12 38 6 42 5 42 -14 0 -32 -46 -62 -94
-62 -23 0 -46 4 -51 9 -9 8 -182 -23 -194 -35 -10 -10 55 -65 96 -80 81 -31
266 1 352 60 44 31 82 93 83 137 2 79 -76 116 -212 99 -134 -16 -170 -14 -170
10 0 35 43 53 113 47 54 -5 165 10 216 28 26 10 -48 74 -103 90 -54 16 -67 17
-138 5z"/>
<path d="M4852 2585 c-85 -119 -152 -218 -150 -219 2 -2 45 -7 96 -12 l93 -10
95 158 c52 87 97 158 99 158 2 0 30 -78 61 -174 l58 -174 41 -6 c22 -3 66 -8
98 -12 l58 -6 -14 33 c-183 437 -198 469 -225 469 -15 0 -56 3 -92 6 l-65 6
-153 -217z"/>
<path d="M5467 2583 l-98 -4 7 -37 c4 -20 7 -37 8 -38 8 -3 286 13 290 17 3 3
3 20 0 37 -6 31 -8 32 -58 30 -28 -1 -95 -4 -149 -5z"/>
</g>
</svg>
